<?xml version="1.0" encoding="UTF-8"?>
<svg width="17px" height="24px" viewBox="0 0 17 24" version="1.1" xmlns="http://www.w3.org/2000/svg" xmlns:xlink="http://www.w3.org/1999/xlink">
    <title>Icon / Social Media / Angel List</title>
    <g id="Icons-/-UI" stroke="none" stroke-width="1" fill="none" fill-rule="evenodd">
        <g id="Icons" transform="translate(-27.000000, -264.000000)">
            <g id="icons/Social-Media/Angel-List" transform="translate(24.000000, 264.000000)">
                <g id="Angel-list">
                    <polygon id="Shape" points="0 0 24 0 24 24 0 24"></polygon>
                    <path d="M17.377635,10.096875 C17.9364997,8.56875 19.546221,4.1484375 19.546221,2.7328125 C19.546221,1.4859375 18.7962915,0.440625 17.4588375,0.440625 C15.3284645,0.440625 13.417816,6.6140625 12.8207384,8.0859375 C12.3574061,6.75 10.1888201,1.77635684e-15 8.27817163,1.77635684e-15 C6.79264245,1.77635684e-15 6.09525575,1.0734375 6.09525575,2.4234375 C6.09525575,4.078125 7.7288602,8.3671875 8.32116122,10.0171875 C8.02023409,9.909375 7.69542385,9.815625 7.36583699,9.815625 C6.24810763,9.815625 5.05872896,11.1796875 5.05872896,12.28125 C5.05872896,12.6984375 5.2927834,13.284375 5.44085865,13.6734375 C3.67828544,14.1421875 3,15.2953125 3,17.034375 C2.99522861,20.41875 6.26243749,24 10.8575471,24 C16.4939601,24 20,19.846875 20,14.4890625 C20,12.46875 19.6704131,10.6453125 17.377635,10.096875 Z M15.6867111,5.0625 C15.8777759,4.4859375 16.6945781,2.0484375 17.4588375,2.0484375 C17.869627,2.0484375 17.9794892,2.465625 17.9794892,2.7984375 C17.9794892,3.69375 16.1357135,8.6390625 15.7297007,9.7359375 L14.1056495,9.4546875 L15.6867111,5.0625 Z M7.5951148,2.2640625 C7.5951148,1.70625 8.28772487,0.121875 9.80669041,4.471875 L11.4594013,9.1734375 C10.7142484,9.1125 10.1362773,9.0328125 9.76847744,9.2390625 C9.24782573,7.8890625 7.5951148,3.628125 7.5951148,2.2640625 Z M7.48525252,11.4375 C8.88480252,11.4375 10.6903653,15.871875 10.6903653,16.471875 C10.6903653,16.7109375 10.4563109,17.00625 10.1840435,17.00625 C9.18572966,17.00625 6.5108218,13.4015625 6.5108218,12.4265625 C6.51559842,12.065625 7.11745269,11.4375 7.48525252,11.4375 L7.48525252,11.4375 Z M16.2885653,20.1703125 C14.8985686,21.6703125 13.1216655,22.4484375 11.0486119,22.4484375 C8.21129893,22.4484375 5.9710636,20.9203125 4.89154722,18.309375 C4.074745,16.275 5.07305882,15.1078125 5.87553118,15.1078125 C6.42006599,15.1078125 8.46923648,17.934375 8.46923648,18.534375 C8.46923648,18.7640625 8.10143665,18.9234375 7.9103718,18.9234375 C7.14133579,18.9234375 6.84040866,18.196875 5.46951838,16.5140625 C4.05086189,17.90625 6.44872572,20.5875 8.25428853,20.5875 C9.50098665,20.5875 10.3130123,19.453125 10.0694046,18.61875 C10.2461396,18.61875 10.4658641,18.6328125 10.6282693,18.590625 C10.6808121,19.8609375 11.0629418,21.375 12.6201203,21.4828125 C12.6201203,21.440625 12.7156527,21.15 12.7156527,21.1359375 C12.7156527,20.3203125 12.2093309,19.6078125 12.2093309,18.778125 C12.2093309,17.4515625 13.2458577,16.1671875 14.2967143,15.4171875 C14.678844,15.1359375 15.1421763,14.9625 15.5911787,14.803125 C16.0545109,14.6296875 16.5465029,14.428125 16.8999729,14.08125 C16.84743,13.55625 16.6277054,13.0921875 16.0927239,13.0921875 C14.7695998,13.0921875 10.3321187,13.2796875 10.3321187,11.23125 C10.3321187,10.9171875 10.3368954,10.6171875 11.1632508,10.6171875 C12.7060995,10.6171875 16.6229288,10.9921875 17.7693179,11.98125 C18.6338863,12.7359375 18.9300369,17.2875 16.2885653,20.1703125 Z M11.5788169,14.2640625 C12.0421491,14.409375 12.5198112,14.4515625 12.9974734,14.5453125 C12.6440034,14.7984375 12.3287464,15.1078125 12.0278193,15.440625 C11.8940739,15.0421875 11.7316687,14.653125 11.5788169,14.2640625 L11.5788169,14.2640625 Z" id="Shape" fill="#fff"></path>
                </g>
            </g>
        </g>
    </g>
</svg>
