<?xml version="1.0" encoding="UTF-8"?>
<svg version="1.1" xmlns="http://www.w3.org/2000/svg" xmlns:xlink="http://www.w3.org/1999/xlink">
    <title>Icon / Social Media / Github</title>
    <g id="Icons-/-UI" stroke="none" stroke-width="1" fill="none" fill-rule="evenodd">
        <g id="Icons" transform="translate(-24.000000, -312.000000)">
            <g id="icons/Social-Media/Github" transform="translate(24.000000, 312.000000)">
                <g id="GitHub">
                    <rect id="BG" x="0" y="0" width="24" height="24"></rect>
                    <path d="M12,0 C5.383,0 0,5.383 0,12 C0,17.738 3.95,22.78 9.392,23.988 C9.539,24.021 9.694,23.985 9.813,23.89 C9.931,23.795 10,23.652 10,23.5 L10,20.5 C10,20.224 9.776,20 9.5,20 L8.5,20 C7.252,20 6.403,18.817 5.653,17.774 C5.576,17.667 5.5,17.56 5.423,17.456 C5.778,17.644 6.083,17.87 6.385,18.093 C6.986,18.539 7.615,18.977 8.438,18.996 C8.458,18.999 8.566,19.004 8.587,19.004 C9.239,19.004 10,18.61 10,17.5 L10,17.151 C10,16.928 9.852,16.731 9.636,16.67 C6.863,15.885 5,13.807 5,11.5 C5,10.3 5.493,9.155 6.425,8.188 C6.569,8.039 6.606,7.818 6.519,7.63 C6.147,6.828 6.226,5.737 6.667,5.082 C7.251,5.309 8.008,5.786 8.5,6.37 C8.635,6.53 8.857,6.59 9.054,6.518 C10.929,5.83 13.071,5.83 14.946,6.518 C15.145,6.591 15.366,6.531 15.5,6.37 C15.992,5.786 16.749,5.309 17.333,5.082 C17.774,5.737 17.853,6.828 17.481,7.63 C17.394,7.818 17.431,8.039 17.575,8.188 C18.507,9.155 19,10.3 19,11.5 C19,13.922 16.93,16.091 13.967,16.774 C13.815,16.809 13.689,16.912 13.625,17.053 C13.56,17.194 13.564,17.357 13.637,17.495 C13.885,17.963 14,18.601 14,19.5 L14,23.5 C14,23.652 14.069,23.795 14.187,23.89 C14.277,23.962 14.387,24 14.5,24 C14.536,24 14.572,23.996 14.608,23.988 C20.05,22.78 24,17.738 24,12 C24,5.383 18.617,0 12,0" id="Fill-137" fill="currentColor"></path>
                </g>
            </g>
        </g>
    </g>
</svg>
