<?xml version="1.0" encoding="UTF-8"?>
<svg width="24px" height="24px" viewBox="0 0 24 24" version="1.1" xmlns="http://www.w3.org/2000/svg" xmlns:xlink="http://www.w3.org/1999/xlink">
    <title>icons / medium</title>
    <g id="Icons-/-UI" stroke="none" stroke-width="1" fill="none" fill-rule="evenodd">
        <g id="Icons" transform="translate(-24.000000, -168.000000)" fill="currentColor">
            <g id="icons/Social-Media/medium" transform="translate(24.000000, 168.000000)">
                <g id="iconfinder_Circled_Medium_svg5_5279113">
                    <path d="M12,0 C18.6229687,0 24,5.37703125 24,12 C24,18.6229687 18.6229688,24 12,24 C5.37703125,24 0,18.6229688 0,12 C0,5.37703125 5.37703125,0 12,0 Z M19.0049531,18.3243281 L19.0049531,18.0880781 L17.9085938,17.0116875 C17.8117969,16.9379531 17.7637969,16.8166406 17.7838594,16.6966406 L17.7838594,8.7879375 C17.7637969,8.66789062 17.8117969,8.546625 17.9085938,8.47284375 L19.03125,7.3965 L19.03125,7.16020312 L15.14475,7.16020312 L12.3742031,14.0713594 L9.2229375,7.16020312 L5.14598437,7.16020312 L5.14598437,7.3965 L6.45904687,8.97825 C6.588,9.09440625 6.65376562,9.26507812 6.63628125,9.43771875 L6.63628125,15.6531094 C6.67448437,15.8772656 6.60384375,16.1063437 6.44596875,16.2700312 L4.96875,18.0617812 L4.96875,18.2980312 L9.1573125,18.2980312 L9.1573125,18.0617812 L7.68014062,16.2700312 C7.52104687,16.1066719 7.446,15.8790937 7.47660937,15.6531094 L7.47660937,10.2778125 L11.1531562,18.2980312 L11.5798594,18.2980312 L14.7376875,10.2778125 L14.7376875,16.6704375 C14.7376875,16.8410156 14.7376875,16.873875 14.6260313,16.9853906 L13.4902969,18.0880781 L13.4902969,18.3243281 L19.0049531,18.3243281 Z" id="Shape"></path>
                </g>
            </g>
        </g>
    </g>
</svg>
