<?xml version="1.0" encoding="UTF-8"?>
<svg width="24px" height="24px" viewBox="0 0 24 24" version="1.1" xmlns="http://www.w3.org/2000/svg" xmlns:xlink="http://www.w3.org/1999/xlink">
    <title>icons / twitter</title>
    <g id="Icons-/-UI" stroke="none" stroke-width="1" fill="none" fill-rule="evenodd">
        <g id="Icons" transform="translate(-24.000000, -24.000000)" fill="currentColor">
            <g id="icons/Social-Media/twitter" transform="translate(24.000000, 24.000000)">
                <g id="iconfinder_Circled_Twitter_svg_5279123">
                    <path d="M12,0 C18.6229687,0 24,5.37703125 24,12 C24,18.6229687 18.6229688,24 12,24 C5.37703125,24 0,18.6229688 0,12 C0,5.37703125 5.37703125,0 12,0 Z M9.88635938,18.3824062 C15.1965,18.3824062 18.0999844,13.98225 18.0999844,10.1688281 C18.0999844,10.0431094 18.0999844,9.91739062 18.0939844,9.797625 C18.6567188,9.3905625 19.1476406,8.8816875 19.53675,8.301 C19.0219219,8.52848437 18.4651406,8.68415625 17.8784531,8.75596875 C18.4771406,8.39676562 18.9321094,7.83403125 19.1476406,7.15757812 C18.5908594,7.48682812 17.9742656,7.72626562 17.3157188,7.85798437 C16.7888906,7.29525 16.0405781,6.94804687 15.2084531,6.94804687 C13.6160156,6.94804687 12.3229219,8.24114062 12.3229219,9.83357812 C12.3229219,10.0610625 12.346875,10.2825469 12.4007344,10.4920781 C10.000125,10.3723594 7.87485938,9.2229375 6.45009375,7.47482812 C6.20460938,7.89989062 6.0609375,8.39676562 6.0609375,8.92359375 C6.0609375,9.92334375 6.5698125,10.809375 7.34807813,11.3242031 C6.87510938,11.31225 6.43209375,11.1805312 6.04298438,10.9650469 L6.04298438,11.0009531 C6.04298438,12.4018125 7.03673438,13.5631875 8.35978125,13.832625 C8.12034375,13.8984375 7.86290625,13.9343906 7.59951563,13.9343906 C7.41389063,13.9343906 7.2343125,13.9164375 7.05473438,13.8804844 C7.41989063,15.0299063 8.4855,15.8620781 9.7486875,15.8859844 C8.76089063,16.6582969 7.51570313,17.1192656 6.16270313,17.1192656 C5.92921875,17.1192656 5.70173438,17.1072656 5.47425,17.0773594 C6.7374375,17.9034844 8.25801563,18.3824062 9.88635938,18.3824062 Z" id="Shape"></path>
                </g>
            </g>
        </g>
    </g>
</svg>
