<?xml version="1.0" encoding="UTF-8"?>
<svg width="24px" height="24px" viewBox="0 0 24 24" version="1.1" xmlns="http://www.w3.org/2000/svg" xmlns:xlink="http://www.w3.org/1999/xlink">
    <title>icons / instagram</title>
    <g id="Icons-/-UI" stroke="none" stroke-width="1" fill="none" fill-rule="evenodd">
        <g id="Icons" transform="translate(-24.000000, -72.000000)" fill="currentColor">
            <g id="icons/Social-Media/instagram" transform="translate(24.000000, 72.000000)">
                <g id="iconfinder_Circled_Instagram_svg_5279112">
                    <path d="M12,0 C18.6229687,0 24,5.37703125 24,12 C24,18.6229687 18.6229688,24 12,24 C5.37703125,24 0,18.6229688 0,12 C0,5.37703125 5.37703125,0 12,0 Z M12,4.5 C9.96314063,4.5 9.70771875,4.508625 8.90775,4.54514063 C8.10946875,4.5815625 7.56426562,4.70835937 7.08717187,4.89375 C6.594,5.08542187 6.17573438,5.341875 5.75878125,5.75882812 C5.34182813,6.17578125 5.085375,6.59404688 4.89370313,7.08721875 C4.7083125,7.56426562 4.5815625,8.10946875 4.54509375,8.90775 C4.508625,9.70771875 4.5,9.96314062 4.5,12 C4.5,14.0368594 4.508625,14.2922813 4.54509375,15.09225 C4.5815625,15.8905313 4.7083125,16.4357344 4.89370313,16.9127813 C5.085375,17.4059531 5.34182813,17.8242188 5.75878125,18.2412188 C6.17573438,18.6581719 6.594,18.914625 7.08717187,19.1062969 C7.56426562,19.2916406 8.10946875,19.4184375 8.90775,19.4548594 C9.70771875,19.491375 9.96314062,19.5 12,19.5 C14.0368594,19.5 14.2922813,19.491375 15.09225,19.4548594 C15.8905313,19.4184375 16.4357344,19.2916406 16.9127813,19.1062969 C17.4059531,18.914625 17.8242188,18.6581719 18.2412188,18.2412188 C18.6581719,17.8242188 18.914625,17.4059531 19.1062969,16.9127813 C19.2916406,16.4357344 19.4184375,15.8905313 19.4548594,15.09225 C19.491375,14.2922813 19.5,14.0368594 19.5,12 C19.5,9.96314063 19.491375,9.70771875 19.4548594,8.90775 C19.4184375,8.10946875 19.2916406,7.56426562 19.1062969,7.08721875 C18.914625,6.59404688 18.6581719,6.17578125 18.2412188,5.75882812 C17.8242188,5.341875 17.4059531,5.08542187 16.9127813,4.89375 C16.4357344,4.70835937 15.8905313,4.5815625 15.09225,4.54514063 C14.2922813,4.508625 14.0368594,4.5 12,4.5 Z M12,5.85135938 C14.0025937,5.85135938 14.2397813,5.859 15.0306562,5.89509375 C15.7619063,5.92846875 16.1589844,6.050625 16.4232656,6.15332813 C16.773375,6.28935938 17.0232187,6.45192188 17.285625,6.714375 C17.548125,6.97678125 17.7106406,7.22667188 17.8466719,7.57673438 C17.949375,7.84101562 18.0715781,8.23809375 18.1049062,8.96934375 C18.141,9.76021875 18.1486406,9.99740625 18.1486406,12 C18.1486406,14.0025937 18.141,14.2397813 18.1049062,15.0306562 C18.0715781,15.7619063 17.949375,16.1589844 17.8466719,16.4232656 C17.7106406,16.773375 17.548125,17.0232187 17.285625,17.285625 C17.0232187,17.548125 16.773375,17.7106406 16.4232656,17.8466719 C16.1589844,17.949375 15.7619063,18.0715781 15.0306562,18.1049062 C14.2399219,18.141 14.0027344,18.1486406 12,18.1486406 C9.99726563,18.1486406 9.760125,18.141 8.96934375,18.1049062 C8.23809375,18.0715781 7.84101562,17.949375 7.57673438,17.8466719 C7.226625,17.7106406 6.97678125,17.548125 6.71432812,17.285625 C6.451875,17.0232187 6.28935938,16.773375 6.15332813,16.4232656 C6.050625,16.1589844 5.92842188,15.7619063 5.89504688,15.0306562 C5.85895313,14.2397813 5.85135938,14.0025937 5.85135938,12 C5.85135938,9.99740625 5.85895313,9.76021875 5.89504688,8.96934375 C5.92842188,8.23809375 6.050625,7.84101562 6.15332813,7.57673438 C6.28935938,7.22667188 6.451875,6.97678125 6.71432812,6.714375 C6.97678125,6.45192188 7.226625,6.28935938 7.57673438,6.15332813 C7.84101562,6.050625 8.23809375,5.92846875 8.96934375,5.89509375 C9.76021875,5.859 9.99740625,5.85135938 12,5.85135938 Z M12,8.14865625 C9.87295313,8.14865625 8.14865625,9.87295313 8.14865625,12 C8.14865625,14.1270469 9.87295313,15.8513438 12,15.8513438 C14.1270469,15.8513438 15.8513438,14.1270469 15.8513438,12 C15.8513438,9.87295313 14.1270469,8.14865625 12,8.14865625 Z M12,14.4999844 C10.6192969,14.4999844 9.50001562,13.3807031 9.50001562,12 C9.50001562,10.6192969 10.6192969,9.50001562 12,9.50001562 C13.3807031,9.50001562 14.4999844,10.6192969 14.4999844,12 C14.4999844,13.3807031 13.3807031,14.4999844 12,14.4999844 L12,14.4999844 Z M16.9035469,7.9965 C16.9035469,8.4935625 16.5005625,8.89645313 16.0035,8.89645313 C15.5064844,8.89645313 15.1035469,8.4935625 15.1035469,7.9965 C15.1035469,7.4994375 15.5064844,7.0965 16.0035,7.0965 C16.5005625,7.0965 16.9035469,7.4994375 16.9035469,7.9965 Z" id="Shape"></path>
                </g>
            </g>
        </g>
    </g>
</svg>
