<?xml version="1.0" encoding="UTF-8"?>
<svg width="24px" height="24px" viewBox="0 0 24 24" version="1.1" xmlns="http://www.w3.org/2000/svg" xmlns:xlink="http://www.w3.org/1999/xlink">
    <title>icons / linkedin</title>
    <g id="Icons-/-UI" stroke="none" stroke-width="1" fill="none" fill-rule="evenodd">
        <g id="Icons" transform="translate(-24.000000, -216.000000)" fill="#fff">
            <g id="icons/Social-Media/linkedin" transform="translate(24.000000, 216.000000)">
                <g id="iconfinder_Circled_Linkedin_svg_5279114">
                    <path d="M12,0 C18.6229687,0 24,5.37703125 24,12 C24,18.6229687 18.6229688,24 12,24 C5.37703125,24 0,18.6229688 0,12 C0,5.37703125 5.37703125,0 12,0 Z M8.24826562,18.7439531 L8.24826562,9.37265625 L5.13276562,9.37265625 L5.13276562,18.7439531 L8.24826562,18.7439531 Z M19.4804531,18.7439531 L19.4804531,13.3699219 C19.4804531,10.491375 17.9435625,9.15229688 15.8940937,9.15229688 C14.2415156,9.15229688 13.5012656,10.0611563 13.0867969,10.6995 L13.0867969,9.37265625 L9.97209375,9.37265625 C10.0133906,10.2518906 9.97209375,18.7439531 9.97209375,18.7439531 L13.08675,18.7439531 L13.08675,13.5103594 C13.08675,13.2302344 13.1069062,12.9502031 13.1894531,12.75 C13.4142187,12.1905469 13.927125,11.6109844 14.7876562,11.6109844 C15.91425,11.6109844 16.3656094,12.4706719 16.3656094,13.7299219 L16.3656094,18.7439531 L19.4804531,18.7439531 L19.4804531,18.7439531 Z M6.7115625,4.85390625 C5.645625,4.85390625 4.94920312,5.5546875 4.94920312,6.47320312 C4.94920312,7.37235937 5.6244375,8.09245312 6.6703125,8.09245312 L6.69042187,8.09245312 C7.77675,8.09245312 8.45292187,7.37235937 8.45292187,6.47320312 C8.43276562,5.5546875 7.77679687,4.85390625 6.7115625,4.85390625 Z" id="Shape"></path>
                </g>
            </g>
        </g>
    </g>
</svg>
