<?xml version="1.0" encoding="UTF-8"?>
<svg width="24px" height="24px" viewBox="0 0 24 24" version="1.1" xmlns="http://www.w3.org/2000/svg" xmlns:xlink="http://www.w3.org/1999/xlink">
    <title>Icon / Symbols / Atom</title>
    <g id="Icons-/-UI" stroke="none" stroke-width="1" fill="none" fill-rule="evenodd">
        <g id="Icons" transform="translate(-72.000000, -168.000000)" fill="currentColor">
            <g id="icons/Atom" transform="translate(72.000000, 168.000000)">
                <path d="M23.529489,6.01453125 C21.924489,3.49921875 17.5160962,4.1625 16.9659176,4.235625 C15.8810962,1.7409375 14.2128819,0 11.9998462,0 C9.78681047,0 8.1191319,1.74046875 7.03431047,4.2346875 C6.48306047,4.1615625 2.07520333,3.50015625 0.470203327,6.01453125 C-0.544975244,7.60734375 0.127881899,9.7884375 2.06234618,12 C0.127881899,14.2115625 -0.544975244,16.3926562 0.470203327,17.9854687 C2.1041319,20.5457813 6.61752476,19.813125 7.03109618,19.7582812 C8.11591761,22.25625 9.78466761,24 11.9998462,24 C14.2150248,24 15.8837748,22.2557813 16.9685962,19.7582812 C17.3837748,19.813125 21.8955605,20.5453125 23.529489,17.9854687 C24.5446676,16.393125 23.8718105,14.2115625 21.9368105,12 C23.8718105,9.7884375 24.5446676,7.60734375 23.529489,6.01453125 Z M2.7191319,16.8895313 C2.32323904,16.269375 2.69609618,15.0942187 3.81573904,13.7104688 C4.41359618,14.221875 5.07466761,14.7253125 5.79306047,15.2170313 C5.90877476,16.0265625 6.07216761,16.8159375 6.27466761,17.5729688 C5.18234618,17.6864063 3.25645333,17.7346875 2.7191319,16.8895313 Z M5.79306047,8.7825 C5.07466761,9.27421875 4.41359618,9.778125 3.81573904,10.2890625 C2.69609618,8.9053125 2.32323904,7.73015625 2.7191319,7.11 C2.91627476,6.7996875 3.65770333,6.15046875 6.27573904,6.4228125 C6.06779466,7.20144765 5.90668037,7.98909269 5.79306047,8.7825 L5.79306047,8.7825 Z M11.9998462,2.25 C12.7648462,2.25 13.696989,3.15328125 14.454489,4.75921875 C13.6525248,4.97390625 12.8355605,5.2284375 12.0009176,5.5453125 C11.165739,5.22796875 10.348239,4.97296875 9.54573904,4.75828125 C10.303239,3.1528125 11.2353819,2.25 11.9998462,2.25 Z M11.9998462,21.75 C11.2359176,21.75 10.3053819,20.8490625 9.54841761,19.2473437 C10.3477033,19.033125 11.1678819,18.7659375 11.9998462,18.45 C12.8318105,18.7659375 13.6514533,19.033125 14.4512748,19.2473437 C13.6943105,20.8490625 12.7637748,21.75 11.9998462,21.75 Z M15.7691319,14.0034375 C14.1646676,15.005625 12.9962748,15.5451562 11.9998462,15.9726562 C11.0050248,15.545625 9.83609618,15.0065625 8.23056047,14.0034375 C8.15716761,13.2028125 8.06609618,11.7946875 8.23056047,9.9965625 C9.83877476,8.9915625 11.0002033,8.45671875 11.9998462,8.0278125 C13.0027033,8.458125 14.1635962,8.9934375 15.7691319,9.9965625 C15.8425248,10.7971875 15.9335962,12.2053125 15.7691319,14.0034375 Z M21.2805605,16.8895313 C20.7437748,17.73375 18.8205605,17.6864063 17.7250248,17.5729688 C17.9275248,16.8159375 18.0909176,16.0265625 18.2066319,15.2170312 C18.9250248,14.7253125 19.5860962,14.2214062 20.1839533,13.7104688 C21.3035962,15.0942187 21.6759176,16.269375 21.2805605,16.8895313 Z M20.1834176,10.2895312 C19.5855605,9.778125 18.924489,9.2746875 18.2060962,8.78296875 C18.0925705,7.9897038 17.9314552,7.20221049 17.7234176,6.42375 C20.3414533,6.15140625 21.0828819,6.800625 21.2800248,7.1109375 C21.6759176,7.730625 21.3035962,8.90578125 20.1834176,10.2895312 Z M11.9998462,10.5 C11.0521676,10.5 10.2834176,11.1717188 10.2834176,12 C10.2834176,12.8282812 11.0516319,13.5 11.9998462,13.5 C12.9480605,13.5 13.7162748,12.8282812 13.7162748,12 C13.7162748,11.1717188 12.9475248,10.5 11.9998462,10.5 L11.9998462,10.5 Z" id="Shape"></path>
            </g>
        </g>
    </g>
</svg>
