<?xml version="1.0" encoding="UTF-8"?>
<svg width="24px" height="24px" viewBox="0 0 24 24" version="1.1" xmlns="http://www.w3.org/2000/svg" xmlns:xlink="http://www.w3.org/1999/xlink">
    <title>Group 2</title>
    <g id="Icons-/-UI" stroke="none" stroke-width="1" fill="none" fill-rule="evenodd">
        <g id="Icons" transform="translate(-72.000000, -360.000000)">
            <g id="Group-2" transform="translate(72.000000, 360.000000)">
                <g id="mental-health" transform="translate(0.000000, 1.000000)" fill="currentColor" fill-rule="nonzero">
                    <path d="M15.0927978,10.9424519 C16.423084,10.8786394 17.2416436,10.0457131 17.2416436,8.7365024 C17.2416436,8.63865352 17.2357802,8.54053559 17.2240997,8.44331453 C18.1162973,7.88976434 18.5,7.14867796 18.5,5.99996268 C18.5,4.85156131 18.1162512,4.11043008 17.2240997,3.55665568 C17.2357802,3.45938978 17.2416436,3.36131668 17.2416436,3.26346781 C17.2416436,1.95425706 16.423084,1.12133085 15.0927516,1.05751832 C14.7364728,0.411769569 14.039566,0.0110465931 13.233518,0.000194426552 C12.7635272,-0.00581462434 12.3787165,0.131496673 12.0886888,0.409348011 C12.0578486,0.438899985 12.028301,0.469976644 12,0.5024883 C11.971699,0.469976644 11.9421976,0.438899985 11.9113112,0.409348011 C11.6212373,0.131496673 11.2357341,-0.00590431167 10.766482,0.000194426552 C9.96052632,0.0110914368 9.26371191,0.411679882 8.90720222,1.05751832 C7.57691597,1.12133085 6.75835642,1.95425706 6.75835642,3.26346781 C6.75835642,3.36131668 6.76426593,3.45943462 6.77590028,3.55665568 C5.88370268,4.11020586 5.5,4.85129224 5.5,6 C5.5,7.1484089 5.88374885,7.88954013 6.77590028,8.44331453 C6.76421976,8.54058043 6.75835642,8.63865352 6.75835642,8.7365024 C6.75835642,10.0457131 7.57691597,10.8786394 8.90724838,10.9424519 C9.26352724,11.5882006 9.96043398,11.9889236 10.766482,11.9997758 C10.7768698,12 10.7871653,12 10.7974608,12 C11.2530009,12 11.6276547,11.8623748 11.9113112,11.590667 C11.9421514,11.5611151 11.971699,11.5300384 12,11.4974819 C12.028301,11.5299936 12.0578024,11.5611151 12.0886888,11.590667 C12.3723453,11.8623748 12.7469067,12 13.2024931,12 C13.2127886,12 13.2231302,12 13.2334718,11.9997758 C14.0395199,11.9888788 14.7362881,11.5882903 15.0927978,10.9424519 Z M11.5383657,9.92983712 C11.5383657,10.4260323 11.443121,10.7795349 11.2630194,10.9520484 C11.1539243,11.0565342 10.9952909,11.1060416 10.7793629,11.1029922 C10.299446,11.0965347 9.89122807,10.8591772 9.70087719,10.4801137 C9.7656048,10.3624888 9.86265005,10.2645502 9.98407202,10.196343 C10.1547091,10.1005121 10.3534164,10.0750409 10.5434903,10.124638 C10.7896122,10.1889438 11.0429825,10.0470585 11.1090951,9.80786236 C11.1752539,9.56866626 11.0292244,9.32269876 10.782964,9.2584378 C10.3542013,9.14664254 9.90637119,9.20395274 9.52188366,9.41991983 C9.25373961,9.57054969 9.038735,9.7856199 8.89385965,10.0435158 C8.08933518,9.98808904 7.68176362,9.54911442 7.68176362,8.7365024 C7.68176362,8.6331826 7.69192059,8.52963858 7.71195753,8.42842643 C7.76435826,8.16335554 7.63836565,7.89528012 7.39879963,7.76151147 C6.67867036,7.35881537 6.42345337,6.89786735 6.42345337,6.00000753 C6.42345337,5.10205801 6.67867036,4.64106515 7.39852262,4.23863812 C7.63836565,4.10473494 7.7643121,3.83670436 7.71191136,3.57122987 C7.69187442,3.47024194 7.68176362,3.36669792 7.68176362,3.26346781 C7.68176362,2.39220028 8.15023084,1.95044535 9.07419206,1.95044535 L9.07973223,1.95044535 C9.0932133,1.95044535 9.1066482,1.94999691 9.11999077,1.94923457 C9.35641736,2.04582782 9.48956602,2.30184029 9.42137581,2.55103653 C9.35586334,2.79036716 9.50249307,3.03597591 9.74889197,3.09965391 C9.78864266,3.10992311 9.82853186,3.11481107 9.86782087,3.11481107 C10.071976,3.11481107 10.2587258,2.9822532 10.3137119,2.78148812 C10.4648661,2.22946262 10.2553555,1.66465668 9.82691597,1.3258628 C10.043675,1.06137488 10.387627,0.902269559 10.779409,0.896978007 C10.9956602,0.893973482 11.1539243,0.943436042 11.2630656,1.04792178 C11.4431671,1.22043535 11.5383657,1.57393795 11.5383657,2.07017793 L11.5383657,9.92983712 Z M14.5787165,9.44897852 C14.644229,9.20964789 14.4975993,8.96403914 14.2512004,8.90036114 C14.0048476,8.83668314 13.7518929,8.97915146 13.6863804,9.21848209 C13.5352262,9.77055243 13.7447368,10.3353135 14.1731764,10.6741074 C13.9564174,10.9385953 13.6124192,11.0977006 13.2206833,11.1029922 C13.004386,11.1065797 12.8461219,11.0565342 12.7370268,10.9520484 C12.5569252,10.7795349 12.4617267,10.4260323 12.4617267,9.92983712 L12.4617267,2.07017793 C12.4617267,1.57398279 12.5569714,1.22048019 12.7370729,1.04796662 C12.8461681,0.943480886 13.004386,0.893973482 13.2207295,0.897022851 C13.7006464,0.903480338 14.1088643,1.14083785 14.2992151,1.51990134 C14.2344875,1.63752626 14.1374423,1.73546483 14.0160203,1.80367204 C13.8453832,1.89950295 13.6467221,1.92497415 13.456602,1.87537705 C13.2104801,1.81111609 12.9571099,1.95295659 12.8909972,2.19215269 C12.8248384,2.43130395 12.970868,2.67731629 13.2171283,2.74153241 C13.3603416,2.77888718 13.5056325,2.79736277 13.6500462,2.79736277 C13.9379501,2.79736277 14.2221607,2.72386401 14.4782087,2.58005038 C14.7463527,2.42942052 14.9613573,2.21435031 15.1062327,1.9564544 C15.9107572,2.01188117 16.3183287,2.45085579 16.3183287,3.26346781 C16.3183287,3.36678761 16.3081717,3.47033163 16.2881348,3.57154378 C16.2357341,3.83661467 16.3617267,4.10469009 16.6012927,4.23845874 C17.321422,4.64115484 17.576639,5.10210285 17.576639,5.99996268 C17.576639,6.8979122 17.321422,7.35890506 16.6015697,7.76133209 C16.3617267,7.89523527 16.2357802,8.16326585 16.2881348,8.42874034 C16.3081717,8.52972827 16.3182825,8.63327228 16.3182825,8.7365024 C16.3182825,9.60776993 15.8498153,10.0495249 14.9258541,10.0495249 L14.922253,10.0495249 C14.9080332,10.04948 14.893952,10.0498836 14.8799169,10.0506908 C14.6436288,9.95409755 14.5105263,9.69808507 14.5787165,9.44897852 L14.5787165,9.44897852 Z" id="Shape"></path>
                    <path d="M9.99135757,5 C9.3897446,5 8.86670903,5.25365982 8.62639951,5.66198109 C8.38741233,6.0680097 8.49213133,6.52094413 8.89976748,6.84417342 C8.91934825,6.85969594 8.93938676,6.87503054 8.959883,6.89013963 C9.05916008,6.9633924 9.18920694,7 9.31920295,7 C9.44950411,7 9.57980527,6.96320448 9.6791332,6.88968861 C9.87758563,6.74280721 9.87733134,6.50482025 9.67857375,6.35816436 C9.66667271,6.3494071 9.65502596,6.34046192 9.64378609,6.33155432 C9.45260652,6.17993723 9.53067532,6.01020427 9.55920731,5.96179505 C9.58819703,5.91252138 9.70512223,5.75169601 9.99140843,5.75169601 C10.2723036,5.75169601 10.5,5.58342886 10.5,5.37584801 C10.4999491,5.16826715 10.2722527,5 9.99135757,5 L9.99135757,5 Z" id="Path"></path>
                    <path d="M14.3214392,6.3581523 C14.1226276,6.50481094 14.1224242,6.74280238 14.3208798,6.88968654 C14.4202601,6.96324137 14.5505125,7 14.6808157,7 C14.8108646,7 14.9409136,6.96335413 15.0401413,6.89013756 C15.0606379,6.87502819 15.0806767,6.85965572 15.1003595,6.84409532 C15.5079004,6.52097271 15.6125702,6.06802977 15.3735792,5.66199354 C15.1332659,5.25366459 14.6102221,5 14.0085996,5 C13.7277,5 13.5,5.16827031 13.5,5.37585507 C13.5,5.58343983 13.7277,5.75171014 14.0085996,5.75171014 C14.2948903,5.75171014 14.4118174,5.91253853 14.4408076,5.96181312 C14.46934,6.01022326 14.54741,6.17995941 14.3563292,6.33146659 C14.3449874,6.34048711 14.3333405,6.34939487 14.3214392,6.3581523 L14.3214392,6.3581523 Z" id="Path"></path>
                    <path d="M8.05367206,12.6420408 L4.89411266,9.49699035 L4.89411266,6.1108406 C4.89411266,5.34583328 4.27800016,4.72344358 3.52070844,4.72344358 C3.5135475,4.72344358 3.47402638,4.7242677 3.47321058,4.7242677 C3.39575462,4.72696896 3.31884254,4.7364005 3.24338077,4.75219603 L3.24338077,4.41371383 C3.24338077,3.65671874 2.66901019,3.03643511 1.93573932,3.00159337 C1.54587617,2.98286766 1.14885208,3.13010947 0.874062463,3.39497077 C0.63983638,3.62059504 0.510894195,3.91466662 0.510894195,4.22293129 C0.510894195,5.30279618 0.504367772,10.3336041 0.5,11.9084414 C0.5,11.9456181 0.500198112,11.9825201 0.500923271,12.0193764 C0.522134147,13.1415 1.01442589,14.230888 1.85153033,15.0081197 C1.85869127,15.0148042 1.86607882,15.021214 1.87369298,15.0273949 L5.40775124,17.9070804 L5.40775124,21.5421585 C5.40775124,21.7950244 5.61065956,22 5.86097509,22 L9.04677615,22 C9.29709168,22 9.5,21.7950244 9.5,21.5421585 L9.5,16.1327615 C9.5,14.8292411 8.97285534,13.5569454 8.05367206,12.6420408 Z M3.50167304,5.6394928 L3.52066312,5.63912653 C3.77813958,5.63912653 3.98761964,5.85074086 3.98761964,6.1108406 L3.98761964,8.97491372 C3.73993281,8.93384534 3.48331747,8.95765309 3.24329012,9.0477563 L3.24329012,5.73124423 C3.3185706,5.67488395 3.40726651,5.64329289 3.50167304,5.6394928 L3.50167304,5.6394928 Z M8.59355231,21.0843628 L6.31419894,21.0843628 L6.31419894,17.6881864 C6.31419894,17.5497351 6.25219792,17.4187467 6.14550902,17.3318026 L2.45454466,14.3242877 C1.80516553,13.7161369 1.42359638,12.8705037 1.40718967,12.00207 C1.40664581,11.9718524 1.40637387,11.9414518 1.40644734,11.9109137 C1.41077014,10.3356186 1.41734189,5.30311667 1.41734189,4.22293129 C1.41734189,4.16579267 1.44503387,4.11016493 1.49969266,4.05746738 C1.59577612,3.96489183 1.75000819,3.90972193 1.89309096,3.91622328 C2.13778651,3.92785246 2.33688775,4.15100439 2.33688775,4.41366804 L2.33688775,10.0412723 C2.32161411,10.0968542 2.30946771,10.1536266 2.3005392,10.2113604 C2.22942838,10.6723152 2.37958144,11.1456775 2.70236746,11.4784825 L5.89464962,14.8519958 C6.06759984,15.0347661 6.35449054,15.0413132 6.53546282,14.8665551 C6.71638978,14.6918428 6.72287088,14.4019834 6.54987534,14.2192131 L3.35555367,10.8435479 C3.35401271,10.8418997 3.35242642,10.8402972 3.35084014,10.8386948 C3.22479859,10.7094004 3.16841754,10.5321699 3.19615484,10.3524671 C3.21392122,10.2375947 3.26527148,10.1327948 3.34553742,10.0480941 C3.36004058,10.0347252 3.38972675,10.0075752 3.40490974,9.99374835 C3.62979942,9.81519017 3.94873304,9.8353352 4.15078023,10.0425085 C4.15236651,10.0441567 4.1539528,10.0457134 4.15553908,10.0473158 L7.41743643,13.2941902 C8.16484787,14.0381368 8.59355231,15.0727212 8.59355231,16.1327157 L8.59355231,21.0843628 L8.59355231,21.0843628 Z" id="Shape"></path>
                    <path d="M23.4891963,4.22292246 C23.4891963,3.91465764 23.3602535,3.62058592 23.1260715,3.39491574 C22.8512805,3.13005432 22.454617,2.9831787 22.0643893,3.00153815 C21.3311148,3.03637991 20.756696,3.65666384 20.756696,4.41365931 L20.756696,4.7520959 C20.6813698,4.73634614 20.604684,4.7269146 20.5274996,4.72425912 C20.5265478,4.72425912 20.4866186,4.72338922 20.4793216,4.72338922 C19.7219808,4.72338922 19.1059105,5.34577923 19.1059105,6.11078693 L19.1059105,9.49693836 L15.9463352,12.6419903 C15.0271926,13.5568954 14.5,14.8291917 14.5,16.1327586 L14.5,21.5421583 C14.5,21.7950243 14.7029093,22 14.9532261,22 L18.1390432,22 C18.38936,22 18.5922693,21.7950243 18.5922693,21.5421583 L18.5922693,17.9070783 L22.1263454,15.0273914 C22.1339596,15.0212105 22.1413471,15.0148007 22.1485081,15.0081163 C22.9856168,14.2308384 23.4779563,13.1414956 23.499122,12.0191883 C23.4998018,11.9825152 23.5,11.9456131 23.5,11.9083448 C23.4957228,10.3335983 23.4891963,5.30278789 23.4891963,4.22292246 L23.4891963,4.22292246 Z M20.476421,5.63907262 L20.4985837,5.63948468 C20.5929001,5.64328477 20.6815511,5.67487584 20.7567413,5.73123616 L20.7567413,9.04752094 C20.5168487,8.95750927 20.2601868,8.93374728 20.0124081,8.97486147 L20.0124081,6.11078693 C20.0124081,5.85073284 20.2218892,5.63911841 20.476421,5.63907262 L20.476421,5.63907262 Z M22.5928963,12.0019277 C22.5764895,12.8705449 22.1949185,13.7161785 21.5455361,14.3243297 L17.8545078,17.331846 C17.7478637,17.4187444 17.6858171,17.5497787 17.6858171,17.68823 L17.6858171,21.0843624 L15.4064522,21.0843624 L15.4064522,16.1328044 C15.4064522,15.0728551 15.8351135,14.0382244 16.5825287,13.2942774 L19.8443971,10.0474014 C19.8460288,10.045799 19.847615,10.0441965 19.849156,10.0425941 C20.0513402,9.83528337 20.3707286,9.81518412 20.594849,9.99360503 C20.610032,10.0074319 20.6400356,10.0349024 20.6545842,10.0482713 C20.7345332,10.1324226 20.7860651,10.23736 20.8037862,10.3524614 C20.8315236,10.53221 20.7751876,10.7094405 20.6491001,10.838735 C20.6478311,10.840017 20.6465621,10.8413447 20.6453383,10.8426267 L19.0352979,12.5341228 C18.8618029,12.7163896 18.8674229,13.0062034 19.0478522,13.181511 C19.2282362,13.356727 19.5151737,13.3511414 19.688714,13.1688288 L21.2972135,11.4789351 C21.6202731,11.1460842 21.7705628,10.6725385 21.6994063,10.2113545 C21.6904778,10.1536207 21.6783313,10.0968483 21.6630576,10.0413121 L21.6630576,4.41365931 C21.6630576,4.15099553 21.8621598,3.92784348 22.1068566,3.9162143 C22.2500761,3.90971295 22.404173,3.96488288 22.5002569,4.05745847 C22.554916,4.11011026 22.5826081,4.16578381 22.5826081,4.22292246 C22.5826081,5.30315417 22.5891799,10.3356128 22.593547,11.9108629 C22.5936668,11.9414468 22.5934402,11.9718932 22.5928963,12.0019277 L22.5928963,12.0019277 Z" id="Shape"></path>
                    <path d="M18.4624872,14.3090753 C18.3804392,14.1090933 18.1705605,13.9824964 17.9552219,14.001969 C17.7484989,14.0206907 17.5698264,14.1702142 17.5165303,14.370847 C17.4635346,14.5703285 17.5407239,14.7867296 17.7085267,14.9073195 C17.8780326,15.0291609 18.1134073,15.031013 18.2849168,14.912025 C18.4763122,14.779321 18.5521991,14.524275 18.4624872,14.3090753 L18.4624872,14.3090753 Z" id="Path"></path>
                </g>
                <rect id="Rectangle" x="0" y="0" width="24" height="24"></rect>
            </g>
        </g>
    </g>
</svg>
