<?xml version="1.0" encoding="UTF-8"?>
<svg width="24px" height="19px" viewBox="0 0 24 19" version="1.1" xmlns="http://www.w3.org/2000/svg" xmlns:xlink="http://www.w3.org/1999/xlink">
    <title>Icon / Symbols / Dragon</title>
    <g id="Icons-/-UI" stroke="none" stroke-width="1" fill="none" fill-rule="evenodd">
        <g id="Icons" transform="translate(-72.000000, -75.000000)">
            <g id="icons/Dragon" transform="translate(72.000000, 72.000000)">
                <g id="dragon">
                    <rect id="Rectangle" x="0" y="0" width="24" height="24"></rect>
                    <path d="M18.0138534,7.45238281 C18.5724805,7.48392578 19.0382527,7.08537109 19.1700468,6.53986328 L16.9823401,5.96949219 C16.7389704,6.97626953 17.5630577,7.42677734 18.0138534,7.45238281 L18.0138534,7.45238281 Z M21.104649,12.5326563 L17.5780343,10.8920508 C17.502268,10.8552154 17.4414936,10.7938016 17.4058034,10.7180078 L18.1052106,10.7180078 C18.2886739,10.8337891 18.4388144,10.9302734 18.563869,11.0108008 C19.1824025,11.4089844 19.4927925,11.6090039 20.1607488,11.6090039 L21.2042434,11.6090039 C22.0665211,11.6090039 22.844181,11.1417969 23.2343214,10.3899609 L23.7165679,9.46074219 C24.1093292,8.70408203 24.0232137,7.77894531 23.4979095,7.10392578 L20.9859594,3.87763672 C20.5580031,3.32804688 19.8810608,3 19.1745398,3 L11.1732917,3 C9.7774727,3 9.19151326,4.73560547 10.2376287,5.56091797 L10.7063963,5.92978516 C10.540156,5.99658203 10.5731045,5.98285156 10.5285491,6.004375 C9.42889236,6.53429688 9.43375975,8.07767578 10.5289236,8.605 L11.9812793,9.16052734 L11.9812793,9.64109375 L5.70271451,8.0884375 C4.87787832,7.88507812 3.99912637,8.21015625 3.51126365,8.89630859 L0.188330733,13.5809961 C-0.350452418,14.419668 0.339968799,15.5251562 1.42614665,15.3715234 L4.85279251,14.7328711 C4.30202808,15.5967773 5.0501092,16.6636719 6.04418097,16.5274805 L12.8121061,15.6283203 C12.9959438,16.0079492 13.2082371,16.3701367 13.448986,16.7108008 C7.94209048,17.0848633 4.19344774,17.9157422 1.41304212,18.5113477 C0.594570983,18.6865039 0,19.41125 0,20.2343359 C0,21.2069727 0.80574103,21.9985156 1.79644306,21.9985156 L18.6140406,22 C21.4622153,22.0003711 23.8082995,19.9278125 23.9550702,17.281543 C24.065897,15.2846875 22.9467707,13.4206836 21.104649,12.5326563 Z M2.54714509,13.3516602 L4.98084243,9.92126953 C5.04299532,9.83294922 5.15269891,9.78544922 5.26876755,9.81699219 L7.88293292,10.4600977 L6.33285491,12.6447266 L2.54714509,13.3516602 Z M7.15357254,14.5829492 L9.75126365,10.9213672 L11.9812793,11.4783789 C11.9812793,12.2669531 11.9861466,12.8428906 12.2328861,13.9083008 L7.15357254,14.5829492 Z M18.6140406,20.21875 L1.79307332,20.2521484 C5.23843994,19.5144141 9.16305772,18.6356641 16.1399064,18.3588281 C16.7606864,18.3339648 17.0152886,17.5513281 16.4877379,17.1791211 C13.770234,15.2601953 13.7784711,12.6016797 13.7784711,11.8702539 L13.7784711,7.93480469 L12.0894852,7.29578125 L14.2363807,6.43335938 L12.1370359,4.78125 L19.1842746,4.78125 C19.3325429,4.78125 19.4725741,4.84953125 19.5631825,4.96568359 L22.0766303,8.19457031 C22.1777223,8.32445313 22.1938222,8.49998047 22.1181903,8.64582031 L21.6359438,9.57503906 C21.5565679,9.72830078 21.3869579,9.82701172 21.2042434,9.82701172 L20.1607488,9.82701172 C20.025585,9.82701172 20.025585,9.82701172 19.5429641,9.51640625 C19.3512637,9.39283203 18.6234009,8.93601562 18.6234009,8.93601562 L15.575663,8.93601562 L15.575663,10.5729102 C15.575663,11.3963672 16.0474259,12.1348438 16.8142278,12.504082 L20.3183775,14.1339258 C21.5266147,14.7161719 22.2323869,15.8847461 22.1604992,17.182832 C22.0676443,18.8575781 20.4767551,20.2191211 18.6140406,20.21875 Z" id="Shape" fill="currentColor"></path>
                </g>
            </g>
        </g>
    </g>
</svg>
